<?xml version="1.0" encoding="UTF-8"?>
<!-- Generated by Pixelmator Pro 3.2.3 -->
<svg width="925" height="904" viewBox="0 0 925 904" xmlns="http://www.w3.org/2000/svg" xmlns:xlink="http://www.w3.org/1999/xlink">
    <linearGradient id="linearGradient1" x1="677.527369" y1="52.487267" x2="247.286656" y2="852.145354" gradientUnits="userSpaceOnUse">
        <stop offset="0" stop-color="#ff004f" stop-opacity="1"/>
        <stop offset="1" stop-color="#ed00ff" stop-opacity="1"/>
    </linearGradient>
    <path id="path1" fill="url(#linearGradient1)" stroke="none" d="M 0 899.479004 C 89.279999 891.330994 113.665001 810.776001 318.279999 882.653015 C 447.946991 928.200989 526.947021 888.674011 562.280029 875.687012 C 580.804993 868.879028 598.164001 858.968994 612.745972 846.059021 C 648.221008 814.651001 656.666016 766.205017 641.63501 720.709045 L 641.655029 720.702026 C 633.788025 696.321045 639.906982 667.15802 660.687988 643.39502 C 684.026001 616.708008 719.435974 604.167969 750.914978 608.569946 C 760.481018 610.328003 770.405029 611.257935 780.593018 611.257935 C 859.846008 611.257935 924.814026 555.370972 924.814026 485.200989 C 924.814026 452.186981 910.590027 422.117981 887.276978 399.526978 C 869.825989 381.671021 858.924988 356.414978 858.924988 328.395996 C 858.924988 304.945007 866.559998 283.427979 879.278992 266.565002 C 899.424011 244.529968 911.370972 217.112 911.370972 187.391968 C 911.370972 114.68103 839.895996 55.741028 751.729004 55.741028 C 722.388 55.741028 694.901001 62.273987 671.276978 73.664978 C 633.007019 90.148987 584.77301 99.986023 532.341003 99.986023 C 452.487 99.986023 382.348999 77.184021 342.375 42.807007 L 342.360992 42.809021 C 310.627014 16.702026 267.411987 0.632019 219.778 0.632019 C 154.742996 0.632019 97.936996 30.583008 67.362999 75.151978 C 58.228001 86.570984 31.153999 115.955994 0 107.801025 L 0 899.479004 Z"/>
</svg>
