<?xml version="1.0" encoding="UTF-8"?>
<!-- Generated by Pixelmator Pro 3.2.3 -->
<svg width="419" height="667" viewBox="0 0 419 667" xmlns="http://www.w3.org/2000/svg" xmlns:xlink="http://www.w3.org/1999/xlink">
    <linearGradient id="linearGradient1" x1="90.452737" y1="607.285089" x2="328.683026" y2="59.996015" gradientUnits="userSpaceOnUse">
        <stop offset="0" stop-color="#ff004f" stop-opacity="1"/>
        <stop offset="1" stop-color="#ed00ff" stop-opacity="1"/>
    </linearGradient>
    <path id="path1" fill="url(#linearGradient1)" stroke="none" d="M 418.135986 63.635986 C 410.514008 67.737976 401.790985 70.526001 392.325989 71.575989 C 366.782013 74.411987 342.888 63.854004 329.912994 46.198975 C 326.194 40.609985 321.859985 35.288025 316.903992 30.333008 C 278.346985 -8.224976 217.024002 -10.114014 179.710999 27.197998 C 162.156006 44.752991 153.085999 67.661987 152.416 91.015991 C 151.412003 109 143.285004 127.732971 128.387009 142.632019 C 115.917 155.10199 100.761002 162.828003 85.606003 165.608002 C 64.089005 167.524994 43.696999 176.291992 27.893999 192.093994 C -10.769 230.757996 -7.338 296.871002 35.556 339.764984 C 49.830002 354.039001 66.677002 363.937988 84.226997 369.372986 C 111.610001 379.225983 140.307007 397.461975 165.815002 422.970032 C 204.662994 461.819031 226.660995 508.065002 227.828995 545.791992 L 227.835999 545.798035 C 229.391998 575.118042 241.871002 604.688049 265.044006 627.861023 C 296.684998 659.501038 340.246002 671.210999 378.819 662.38501 C 386.72699 661.160034 404.971008 659.473022 418.13501 666.998047 L 418.13501 63.635986 Z"/>
</svg>
