<?xml version="1.0" encoding="UTF-8"?>
<!-- Generated by Pixelmator Pro 3.2.3 -->
<svg width="337" height="860" viewBox="0 0 337 860" xmlns="http://www.w3.org/2000/svg" xmlns:xlink="http://www.w3.org/1999/xlink">
    <linearGradient id="linearGradient1" x1="324.724617" y1="585.327514" x2="11.445807" y2="273.844524" gradientUnits="userSpaceOnUse">
        <stop offset="0" stop-color="#dd52e5" stop-opacity="1"/>
        <stop offset="1" stop-color="#81b5f9" stop-opacity="1"/>
    </linearGradient>
    <path id="path1" fill="url(#linearGradient1)" stroke="none" d="M 336.166992 0.171021 C 311.100006 4.659973 287.223999 16.161011 267.562988 34.926025 C 241.460999 59.840027 227.507004 92.820984 225.742996 126.734009 C 223.675003 152.833008 211.231995 179.776978 189.078995 200.921997 C 170.537994 218.619019 148.253006 229.333984 126.138 232.859985 C 94.807999 234.916992 64.880997 246.965027 41.382999 269.393982 C -16.105 324.265015 -13.358 420.449005 47.516998 484.22699 C 67.775002 505.451996 91.920998 520.405029 117.237999 528.899048 C 156.694 544.140991 197.774994 571.609985 233.977005 609.539001 C 289.110992 667.30304 319.51001 735.247009 319.928986 790.106018 L 319.94101 790.11499 C 320.631989 813.384033 326.054993 836.866028 336.169006 859.001038 L 336.169006 0.171021 Z"/>
</svg>
