<?xml version="1.0" encoding="UTF-8"?>
<!-- Generated by Pixelmator Pro 3.2.3 -->
<svg width="279" height="967" viewBox="0 0 279 967" xmlns="http://www.w3.org/2000/svg" xmlns:xlink="http://www.w3.org/1999/xlink">
    <linearGradient id="linearGradient1" x1="23.127539" y1="217.451183" x2="255.494231" y2="750.50182" gradientUnits="userSpaceOnUse">
        <stop offset="0" stop-color="#ff004f" stop-opacity="1"/>
        <stop offset="1" stop-color="#ed00ff" stop-opacity="1"/>
    </linearGradient>
    <path id="path1" fill="url(#linearGradient1)" stroke="none" d="M 193.533997 305.450012 C 167.192001 295.211975 144.854996 274.570984 133.166 246.265991 C 123.384003 222.573975 122.672997 197.422974 129.406998 174.700989 C 142.020996 143.434998 143.518005 110.39502 131.119003 80.369995 C 111.109001 31.913025 59.922001 3.421997 0 0.953003 L 0 967 C 17.6 953.083008 30.572001 940.382019 40.339001 931.780029 C 57.555 916.619019 72.211998 898.846985 82.612999 879.286011 C 107.914001 831.697998 96.847 778.97699 61.594002 739.737 L 61.612 739.721008 C 42.924999 718.608032 37.382999 686.409973 49.967999 653.114014 C 64.100998 615.721008 97.202003 587.221008 133.119003 577.595032 C 144.207993 575.093994 155.339005 571.596985 166.367996 567.04303 C 252.167999 531.612 299.184998 446.109009 269.911987 375.218994 C 256.139008 341.869995 228.197006 317.849976 193.533997 305.450012 Z"/>
</svg>
